<?xml version="1.0" standalone="no"?>
<!DOCTYPE svg PUBLIC "-//W3C//DTD SVG 20010904//EN"
 "http://www.w3.org/TR/2001/REC-SVG-20010904/DTD/svg10.dtd">
<svg version="1.0" xmlns="http://www.w3.org/2000/svg"
 width="875.000000pt" height="875.000000pt" viewBox="0 0 875.000000 875.000000"
 preserveAspectRatio="xMidYMid meet">
<metadata>
Created by potrace 1.14, written by Peter Selinger 2001-2017
</metadata>
<g transform="translate(0.000000,875.000000) scale(0.100000,-0.100000)"
fill="#000000" stroke="none">
<path d="M4237 7936 c-122 -45 -199 -154 -266 -371 -36 -121 -79 -330 -96
-475 -3 -25 -10 -79 -15 -120 -5 -41 -12 -104 -15 -140 -3 -36 -8 -85 -10
-110 -3 -25 -7 -74 -10 -110 -3 -36 -7 -94 -10 -130 -9 -121 -21 -304 -30
-480 -11 -212 -14 -274 -21 -440 -3 -91 -7 -191 -8 -222 l-3 -58 36 -1 c20 -1
60 -2 89 -3 29 -2 55 0 57 4 2 3 7 71 10 151 16 389 29 661 40 814 3 39 7 108
10 155 3 47 7 108 10 135 2 28 7 82 10 120 3 39 8 86 10 105 2 19 7 65 10 102
3 37 7 75 9 85 2 10 7 45 10 78 4 33 9 67 11 75 2 8 6 35 9 60 7 57 12 86 32
180 59 283 140 438 220 422 70 -13 150 -188 200 -437 26 -128 65 -415 79 -575
3 -36 8 -83 10 -105 3 -22 7 -78 10 -125 4 -47 8 -105 11 -130 2 -25 6 -90 9
-145 3 -55 8 -127 10 -160 2 -33 7 -116 10 -185 4 -69 8 -156 10 -195 2 -38 7
-144 11 -234 3 -90 7 -171 9 -180 1 -13 15 -15 86 -12 46 1 87 5 91 7 4 3 5
48 3 102 -2 53 -7 156 -10 227 -3 72 -7 159 -9 195 -3 36 -7 121 -11 190 -3
69 -7 152 -10 185 -2 33 -7 101 -10 150 -10 162 -21 292 -30 380 -12 116 -15
143 -21 195 -10 105 -13 125 -18 155 -2 17 -10 66 -16 110 -7 44 -13 87 -15
95 -2 8 -8 44 -15 80 -45 241 -131 448 -219 527 -68 61 -179 87 -254 59z"/>
<path d="M6110 6429 c-184 -66 -387 -139 -450 -161 -63 -23 -116 -42 -118 -43
-8 -6 62 -176 72 -172 6 2 58 21 116 42 58 20 174 62 258 92 84 31 155 53 158
51 2 -3 -19 -70 -47 -149 -28 -79 -60 -171 -71 -204 -11 -33 -31 -89 -44 -124
-24 -64 -24 -73 -1 -77 7 -2 43 -15 81 -29 38 -14 70 -24 71 -23 1 2 34 95 74
208 40 113 76 214 81 225 5 11 20 54 34 95 14 41 43 127 66 190 23 63 45 126
50 140 4 14 11 33 15 43 4 9 3 17 -1 16 -5 0 -160 -54 -344 -120z"/>
<path d="M2175 6523 c3 -10 73 -205 155 -433 81 -228 153 -427 159 -442 l10
-28 83 31 c45 16 84 32 86 33 1 2 -40 124 -93 271 -52 148 -93 270 -90 273 2
2 63 -16 135 -42 235 -83 385 -135 398 -138 8 -2 24 28 43 81 16 46 28 85 27
86 -4 4 -248 91 -543 195 -143 50 -284 100 -313 111 -64 23 -66 23 -57 2z"/>
<path d="M7980 5033 c-78 -9 -231 -72 -293 -122 -235 -187 -323 -464 -236
-740 62 -197 223 -359 425 -427 68 -23 96 -27 204 -27 102 -1 138 3 192 20 77
25 153 62 188 92 l25 21 -35 31 c-19 17 -60 55 -91 84 l-55 53 -72 -13 c-174
-30 -343 4 -437 86 -132 116 -158 378 -53 535 137 204 475 226 657 43 84 -85
111 -171 106 -336 -3 -75 -9 -104 -29 -146 l-25 -52 82 -79 81 -78 19 23 c29
36 73 128 93 195 25 82 25 275 0 358 -45 152 -141 285 -261 364 -22 15 -42 29
-45 32 -14 16 -113 55 -180 71 -69 17 -172 22 -260 12z"/>
<path d="M1596 4379 c-180 -358 -325 -654 -322 -657 4 -3 61 -4 129 -3 101 2
124 5 132 19 6 9 93 179 193 377 101 198 188 364 192 369 5 5 47 -68 94 -162
l86 -171 134 0 134 0 -12 27 c-27 61 -418 838 -425 845 -4 4 -155 -286 -335
-644z"/>
<path d="M4991 4473 c-154 -307 -302 -602 -329 -655 -34 -68 -45 -98 -36 -99
8 -1 23 -1 34 -1 11 0 64 0 118 1 l97 1 76 148 c42 81 129 252 193 379 65 128
121 235 126 238 4 3 44 -69 89 -159 50 -103 87 -166 98 -169 33 -10 253 -6
253 3 0 13 -429 870 -435 870 -3 0 -131 -251 -284 -557z"/>
<path d="M4 4510 c0 -280 2 -510 5 -510 2 0 55 52 116 115 l112 114 0 396 -1
395 -116 0 -116 0 0 -510z"/>
<path d="M2952 4901 l3 -116 430 3 430 3 205 101 c113 56 213 107 223 114 15
10 -109 12 -637 12 l-657 0 3 -117z"/>
<path d="M6071 5005 c0 -5 31 -59 67 -120 l67 -110 255 0 c228 -1 259 -3 293
-19 139 -68 120 -290 -31 -362 -28 -13 -62 -16 -159 -15 -68 0 -122 -2 -120
-6 3 -5 55 -98 117 -208 62 -110 126 -222 142 -250 16 -27 46 -82 69 -122 22
-39 45 -73 52 -76 15 -5 257 -8 257 -2 0 5 -46 89 -137 249 -40 71 -73 131
-73 133 0 3 -10 19 -22 36 l-22 31 50 40 c155 128 215 234 216 386 1 167 -66
282 -209 357 -124 66 -126 66 -485 68 -223 0 -328 -2 -327 -10z"/>
<path d="M274 3950 c-60 -5 -63 -6 -124 -70 -34 -36 -83 -87 -108 -113 l-47
-48 440 3 440 3 3 111 3 112 -267 1 c-147 1 -269 3 -273 4 -3 1 -34 0 -67 -3z"/>
<path d="M2210 3953 c0 -1 25 -52 56 -113 32 -65 63 -114 74 -118 16 -6 104
-7 228 -3 21 1 19 7 -37 119 l-59 118 -131 0 c-72 0 -131 -1 -131 -3z"/>
<path d="M3390 3952 c-35 -10 -448 -220 -455 -231 -3 -6 263 -9 652 -8 l658 2
3 116 3 116 -173 2 c-414 6 -674 7 -688 3z"/>
<path d="M5560 3953 c0 -11 103 -210 115 -222 13 -13 112 -18 241 -12 19 1 17
9 -33 109 -29 59 -54 112 -56 117 -4 10 -267 17 -267 8z"/>
<path d="M3785 3470 c-25 -4 -30 -10 -29 -30 3 -37 15 -321 19 -425 2 -49 6
-128 9 -175 3 -47 8 -132 11 -190 4 -58 8 -132 10 -165 13 -199 16 -234 20
-275 2 -25 7 -79 10 -120 3 -41 8 -86 10 -100 2 -14 7 -58 10 -98 4 -41 8 -81
9 -90 2 -9 7 -44 10 -77 49 -419 141 -718 255 -833 65 -65 111 -86 191 -85
134 1 225 79 302 259 22 52 62 177 73 232 38 184 52 261 60 332 3 25 10 77 16
115 5 39 11 93 14 120 4 47 14 151 21 220 1 17 5 71 9 120 3 50 8 110 10 135
2 25 7 92 10 150 3 58 8 134 10 170 6 109 20 391 30 653 6 148 6 157 -12 158
-10 1 -52 2 -93 2 l-74 2 -2 -35 c0 -19 -4 -120 -8 -225 -4 -104 -9 -215 -11
-245 -1 -30 -6 -120 -10 -200 -3 -80 -8 -163 -10 -185 -2 -22 -6 -87 -10 -145
-6 -101 -8 -140 -20 -280 -4 -36 -8 -90 -11 -120 -7 -87 -15 -163 -19 -190 -2
-14 -6 -50 -10 -80 -3 -30 -7 -66 -9 -80 -3 -14 -7 -47 -11 -75 -3 -27 -8 -57
-10 -65 -2 -8 -6 -31 -9 -50 -31 -208 -102 -415 -165 -477 -76 -77 -147 -14
-216 191 -24 71 -67 255 -79 341 -4 22 -8 54 -11 70 -8 49 -15 103 -20 153 -3
26 -8 63 -10 82 -3 19 -7 62 -10 95 -4 33 -8 74 -10 90 -2 17 -7 71 -10 120
-4 50 -9 106 -10 125 -2 19 -6 85 -10 145 -3 61 -8 130 -10 155 -6 65 -17 269
-30 575 -4 88 -9 183 -10 210 -1 28 -3 62 -4 77 -1 26 -2 27 -63 25 -35 -1
-77 -4 -93 -7z"/>
<path d="M2461 3016 c-145 -404 -282 -799 -277 -803 3 -3 18 -1 33 5 15 6 69
25 118 42 50 17 99 35 110 40 11 5 74 28 140 51 66 23 161 56 210 74 50 18
133 48 185 65 52 18 99 36 104 40 13 12 -43 170 -60 170 -8 0 -56 -15 -107
-34 -82 -30 -391 -140 -426 -152 -9 -3 -11 1 -6 13 4 10 22 61 40 113 18 52
57 160 85 240 74 205 76 182 -23 217 l-86 29 -40 -110z"/>
<path d="M6043 3103 c-40 -15 -73 -32 -73 -39 0 -6 42 -130 94 -275 52 -145
94 -265 92 -266 -2 -2 -94 30 -146 50 -66 26 -401 139 -404 136 -2 -2 -17 -41
-33 -86 l-30 -82 116 -41 c64 -23 184 -66 266 -95 83 -29 213 -76 290 -103 77
-27 165 -59 197 -70 l56 -20 -40 112 c-22 61 -55 154 -74 206 -18 52 -51 145
-73 205 -22 61 -62 173 -89 250 -29 82 -55 141 -63 142 -8 1 -47 -10 -86 -24z"/>
</g>
</svg>
