<?xml version="1.0" standalone="no"?>
<!DOCTYPE svg PUBLIC "-//W3C//DTD SVG 20010904//EN"
 "http://www.w3.org/TR/2001/REC-SVG-20010904/DTD/svg10.dtd">
<svg version="1.0" xmlns="http://www.w3.org/2000/svg"
 width="700.000000pt" height="700.000000pt" viewBox="0 0 700.000000 700.000000"
 preserveAspectRatio="xMidYMid meet">
<metadata>
Created by potrace 1.14, written by Peter Selinger 2001-2017
</metadata>
<g transform="translate(0.000000,700.000000) scale(0.100000,-0.100000)"
fill="#000000" stroke="none">
<path d="M4800 5053 c-129 -46 -248 -89 -264 -94 -16 -5 -60 -20 -97 -34 l-67
-26 11 -36 c6 -19 16 -37 23 -40 9 -3 449 147 476 163 7 5 -18 -70 -102 -306
-28 -80 -54 -153 -57 -162 -4 -12 2 -20 18 -26 55 -21 69 -23 69 -12 0 11 72
219 181 519 27 74 47 136 46 137 -1 1 -108 -36 -237 -83z"/>
<path d="M1767 5033 c19 -54 48 -134 63 -178 16 -44 49 -138 75 -210 26 -71
50 -140 52 -152 3 -13 8 -23 11 -23 19 0 82 25 82 33 0 11 -78 233 -145 415
-13 34 -20 62 -17 62 4 0 57 -18 117 -39 61 -22 167 -60 237 -84 l127 -45 9
26 c6 15 13 34 16 43 5 12 -4 20 -36 32 -148 54 -611 217 -618 217 -5 0 7 -44
27 -97z"/>
<path d="M1427 3525 l-247 -496 102 3 103 3 140 277 c77 152 143 280 147 283
4 4 32 -43 63 -106 30 -62 60 -119 67 -126 7 -9 40 -13 109 -13 55 0 99 2 99
5 0 7 -330 665 -333 665 -1 0 -113 -223 -250 -495z"/>
<path d="M6150 4003 c-192 -47 -335 -196 -377 -393 -8 -39 -5 -151 6 -200 26
-123 138 -268 250 -324 146 -74 316 -74 462 -1 64 33 75 49 47 68 -13 8 -44
36 -71 60 -44 42 -49 45 -80 36 -51 -15 -171 -12 -239 7 -117 33 -181 127
-187 271 -5 124 46 217 151 273 36 20 129 39 164 34 77 -11 104 -18 148 -42
61 -33 98 -71 128 -132 28 -59 31 -233 5 -274 -9 -14 -17 -30 -17 -37 0 -6 26
-35 57 -65 63 -59 68 -59 102 7 132 253 22 567 -240 683 -30 13 -69 27 -88 31
-60 13 -164 12 -221 -2z"/>
<path d="M245 4000 c-2 -4 -4 -179 -3 -390 l0 -383 90 90 89 91 0 158 c0 88 0
222 0 299 l-1 140 -86 0 c-47 1 -87 -2 -89 -5z"/>
<path d="M2442 3995 c-4 -7 -7 -133 -3 -166 1 -4 147 -5 325 -3 l324 3 168 85
c93 47 160 86 149 86 -102 7 -958 3 -963 -5z"/>
<path d="M3918 3520 l-247 -490 98 0 c67 0 102 4 108 13 6 6 73 135 149 284
76 150 141 273 144 272 3 0 32 -55 65 -122 l60 -122 103 -3 c56 -1 102 0 102
3 0 11 -325 655 -330 655 -3 0 -116 -220 -252 -490z"/>
<path d="M4777 4002 c-9 -2 -17 -6 -17 -9 0 -6 88 -163 96 -172 2 -2 89 -5
192 -6 203 -1 233 -7 267 -53 24 -33 26 -114 2 -159 -30 -57 -71 -73 -186 -73
l-103 0 20 -32 c11 -18 32 -55 47 -83 15 -27 39 -70 54 -95 33 -56 43 -75 110
-194 31 -55 61 -97 70 -97 9 -1 57 -2 106 -3 l90 -2 -97 171 -98 170 22 18
c98 82 142 138 159 201 50 187 -23 327 -209 396 -49 19 -80 21 -282 23 -125 1
-234 1 -243 -1z"/>
<path d="M1899 3212 c-14 -2 -10 -15 21 -78 55 -108 48 -104 156 -104 52 0 94
2 94 5 0 5 -80 167 -85 173 -4 5 -166 8 -186 4z"/>
<path d="M2785 3210 c-41 -7 -365 -165 -365 -178 0 -5 222 -8 493 -8 l492 1 3
92 3 92 -287 1 c-158 0 -289 2 -293 3 -3 2 -24 0 -46 -3z"/>
<path d="M4384 3208 c-3 -4 14 -45 38 -90 l43 -83 98 -3 c63 -2 97 1 97 8 0
16 -79 170 -88 171 -40 5 -185 2 -188 -3z"/>
<path d="M339 3143 c-35 -37 -72 -78 -83 -91 l-18 -23 331 2 331 1 0 89 0 89
-249 0 -248 0 -64 -67z"/>
<path d="M1957 2483 c-17 -51 -96 -276 -171 -487 -26 -71 -45 -130 -44 -132 3
-2 269 91 348 121 19 8 91 34 160 59 69 24 132 47 141 51 16 6 16 10 1 46 -19
48 -9 49 -182 -14 -69 -25 -169 -61 -222 -80 -54 -19 -98 -34 -98 -33 0 1 38
110 85 241 47 131 85 240 85 242 0 4 -28 15 -66 27 -18 5 -23 0 -37 -41z"/>
<path d="M4754 2515 l-32 -14 70 -193 c94 -263 100 -279 95 -284 -2 -2 -105
32 -228 76 -123 44 -231 80 -240 80 -9 0 -20 -15 -27 -37 -12 -38 -9 -53 10
-53 6 0 110 -36 232 -79 122 -43 257 -91 301 -106 44 -16 88 -32 97 -37 14 -7
8 18 -28 119 -25 70 -50 139 -54 153 -7 22 -62 175 -118 330 -22 60 -32 65
-78 45z"/>
</g>
</svg>
